<svg width="30" height="30" viewBox="0 0 30 30" fill="none" xmlns="http://www.w3.org/2000/svg">
<circle cx="15" cy="15" r="14" stroke="#D1D1D7" stroke-width="2"/>
<path d="M10.4766 10.4336H15.877V19.4375H19.3242V21H10.4766V19.4375H14.0703V12.0059H10.4766V10.4336ZM13.8359 7.66016C13.8359 7.36068 13.9238 7.11003 14.0996 6.9082C14.2819 6.69987 14.5553 6.5957 14.9199 6.5957C15.278 6.5957 15.5482 6.69987 15.7305 6.9082C15.9128 7.11003 16.0039 7.36068 16.0039 7.66016C16.0039 7.95312 15.9128 8.19727 15.7305 8.39258C15.5482 8.58789 15.278 8.68555 14.9199 8.68555C14.5553 8.68555 14.2819 8.58789 14.0996 8.39258C13.9238 8.19727 13.8359 7.95312 13.8359 7.66016Z" fill="#D1D1D7"/>
</svg>
