<svg width="101" height="36" fill="none" xmlns="http://www.w3.org/2000/svg"><path d="M92.455 23.982H78.83c-.818 0-1.481.669-1.481 1.493 0 .824.663 1.492 1.48 1.492h13.626c.818 0 1.481-.668 1.481-1.492 0-.825-.663-1.493-1.481-1.493zM20.715 20.227l-3.793-2.46 3.793-2.46a1.5 1.5 0 00.444-2.063 1.474 1.474 0 00-2.046-.447l-3.447 2.235v-4.13c0-.825-.663-1.493-1.48-1.493-.819 0-1.482.668-1.482 1.493v4.13l-3.446-2.235a1.474 1.474 0 00-2.047.447 1.5 1.5 0 00.444 2.063l3.793 2.46-3.793 2.46a1.5 1.5 0 00-.444 2.063 1.477 1.477 0 002.047.447l3.446-2.235v4.13c0 .825.663 1.493 1.48 1.493.819 0 1.482-.668 1.482-1.493v-4.13l3.446 2.236a1.477 1.477 0 002.047-.447 1.5 1.5 0 00-.444-2.064zM38.356 20.227l-3.793-2.46 3.793-2.46a1.5 1.5 0 00.444-2.063 1.474 1.474 0 00-2.046-.447l-3.447 2.235v-4.13c0-.824-.663-1.493-1.48-1.493-.819 0-1.482.668-1.482 1.493v4.13L26.9 12.797a1.474 1.474 0 00-2.047.447 1.5 1.5 0 00.444 2.063l3.793 2.46-3.793 2.46a1.5 1.5 0 00-.444 2.063 1.477 1.477 0 002.047.447l3.446-2.235v4.13c0 .825.663 1.493 1.481 1.493.818 0 1.481-.668 1.481-1.493v-4.13l3.447 2.236a1.477 1.477 0 002.047-.447 1.5 1.5 0 00-.445-2.064zM55.998 20.227l-3.794-2.46 3.794-2.46a1.5 1.5 0 00.444-2.063 1.474 1.474 0 00-2.047-.447l-3.446 2.235v-4.13c0-.824-.663-1.493-1.481-1.493-.819 0-1.482.668-1.482 1.493v4.13l-3.446-2.235a1.474 1.474 0 00-2.047.447 1.5 1.5 0 00.444 2.063l3.794 2.46-3.794 2.46a1.5 1.5 0 00-.444 2.063 1.477 1.477 0 002.047.447l3.446-2.235v4.13c0 .825.663 1.493 1.481 1.493.818 0 1.481-.668 1.481-1.493v-4.13l3.447 2.236a1.477 1.477 0 002.047-.447 1.5 1.5 0 00-.444-2.064zM73.64 20.227l-3.794-2.46 3.793-2.46a1.5 1.5 0 00.444-2.063 1.474 1.474 0 00-2.047-.447l-3.446 2.235v-4.13c0-.825-.663-1.493-1.481-1.493-.818 0-1.481.668-1.481 1.493v4.13l-3.447-2.235a1.474 1.474 0 00-2.046.447 1.5 1.5 0 00.443 2.063l3.794 2.46-3.794 2.46a1.5 1.5 0 00-.444 2.063 1.477 1.477 0 002.047.447l3.447-2.235v4.13c0 .825.663 1.493 1.48 1.493.819 0 1.482-.668 1.482-1.493v-4.13l3.446 2.236a1.477 1.477 0 002.047-.447 1.5 1.5 0 00-.444-2.064z" fill="#209eff"/><path d="M53.615 32.55H2.962V2.984h18.366c.818 0 1.48-.668 1.48-1.492 0-.825-.662-1.493-1.48-1.493H2.468A2.48 2.48 0 000 2.488v30.559a2.48 2.48 0 002.468 2.487h51.147c.818 0 1.481-.668 1.481-1.492 0-.825-.663-1.493-1.48-1.493zM98.531 0h-66.54c-.818 0-1.48.668-1.48 1.493 0 .824.662 1.492 1.48 1.492h66.047V32.55H63.884c-.818 0-1.481.668-1.481 1.493 0 .824.663 1.492 1.481 1.492h34.648A2.48 2.48 0 00101 33.047V2.487A2.481 2.481 0 0098.531 0z" fill="#209eff"/></svg>

