<svg width="22" height="25" fill="none" xmlns="http://www.w3.org/2000/svg"><path d="M13.232 25H3.906A3.91 3.91 0 010 21.094V7.86a3.91 3.91 0 013.906-3.906h9.326a3.91 3.91 0 013.907 3.906v13.233A3.91 3.91 0 0113.232 25zM3.906 5.908a1.955 1.955 0 00-1.953 1.953v13.233c0 1.077.876 1.953 1.953 1.953h9.326a1.955 1.955 0 001.954-1.953V7.86a1.955 1.955 0 00-1.954-1.953H3.906zm17.139 12.744V3.906A3.91 3.91 0 0017.139 0H6.299a.976.976 0 100 1.953h10.84c1.077 0 1.953.876 1.953 1.953v14.746a.977.977 0 101.953 0z" fill="#FEFEFE"/></svg>

